<svg width="20" height="26" viewBox="0 0 20 26" fill="none" xmlns="http://www.w3.org/2000/svg">
<path d="M2.65625 2.0625C2.36617 2.0625 2.08797 2.17773 1.88285 2.38285C1.67773 2.58797 1.5625 2.86617 1.5625 3.15625V23.9375H3.75V20.6562C3.75 20.2833 3.89816 19.9256 4.16188 19.6619C4.4256 19.3982 4.78329 19.25 5.15625 19.25H14.8438C15.2167 19.25 15.5744 19.3982 15.8381 19.6619C16.1018 19.9256 16.25 20.2833 16.25 20.6562V23.9375H18.4375V12.5312C18.4375 12.2412 18.3223 11.963 18.1171 11.7579C17.912 11.5527 17.6338 11.4375 17.3438 11.4375H14.2188C13.7875 11.4375 13.4375 11.0875 13.4375 10.6562V3.15625C13.4375 3.01262 13.4092 2.87039 13.3542 2.73769C13.2993 2.60499 13.2187 2.48442 13.1171 2.38285C13.0156 2.28129 12.895 2.20072 12.7623 2.14576C12.6296 2.09079 12.4874 2.0625 12.3438 2.0625H2.65625ZM0.78125 25.5C0.35 25.5 0 25.15 0 24.7188V3.15625C0 2.45177 0.279854 1.77614 0.777997 1.278C1.27614 0.779854 1.95177 0.5 2.65625 0.5H12.3438C13.0482 0.5 13.7239 0.779854 14.222 1.278C14.7201 1.77614 15 2.45177 15 3.15625V9.875H17.3438C18.0482 9.875 18.7239 10.1549 19.222 10.653C19.7201 11.1511 20 11.8268 20 12.5312V24.7188C20 25.15 19.65 25.5 19.2188 25.5H0.78125ZM5.3125 23.9375H9.21875V20.8125H5.3125V23.9375ZM10.7812 23.9375H14.6875V20.8125H10.7812V23.9375ZM6.25 6.75C6.25 7.08152 6.1183 7.39946 5.88388 7.63388C5.64946 7.8683 5.33152 8 5 8C4.66848 8 4.35054 7.8683 4.11612 7.63388C3.8817 7.39946 3.75 7.08152 3.75 6.75C3.75 6.41848 3.8817 6.10054 4.11612 5.86612C4.35054 5.6317 4.66848 5.5 5 5.5C5.33152 5.5 5.64946 5.6317 5.88388 5.86612C6.1183 6.10054 6.25 6.41848 6.25 6.75ZM5 12.375C5.33152 12.375 5.64946 12.2433 5.88388 12.0089C6.1183 11.7745 6.25 11.4565 6.25 11.125C6.25 10.7935 6.1183 10.4755 5.88388 10.2411C5.64946 10.0067 5.33152 9.875 5 9.875C4.66848 9.875 4.35054 10.0067 4.11612 10.2411C3.8817 10.4755 3.75 10.7935 3.75 11.125C3.75 11.4565 3.8817 11.7745 4.11612 12.0089C4.35054 12.2433 4.66848 12.375 5 12.375ZM6.25 15.5C6.25 15.8315 6.1183 16.1495 5.88388 16.3839C5.64946 16.6183 5.33152 16.75 5 16.75C4.66848 16.75 4.35054 16.6183 4.11612 16.3839C3.8817 16.1495 3.75 15.8315 3.75 15.5C3.75 15.1685 3.8817 14.8505 4.11612 14.6161C4.35054 14.3817 4.66848 14.25 5 14.25C5.33152 14.25 5.64946 14.3817 5.88388 14.6161C6.1183 14.8505 6.25 15.1685 6.25 15.5ZM10 8C10.3315 8 10.6495 7.8683 10.8839 7.63388C11.1183 7.39946 11.25 7.08152 11.25 6.75C11.25 6.41848 11.1183 6.10054 10.8839 5.86612C10.6495 5.6317 10.3315 5.5 10 5.5C9.66848 5.5 9.35054 5.6317 9.11612 5.86612C8.8817 6.10054 8.75 6.41848 8.75 6.75C8.75 7.08152 8.8817 7.39946 9.11612 7.63388C9.35054 7.8683 9.66848 8 10 8ZM11.25 11.125C11.25 11.4565 11.1183 11.7745 10.8839 12.0089C10.6495 12.2433 10.3315 12.375 10 12.375C9.66848 12.375 9.35054 12.2433 9.11612 12.0089C8.8817 11.7745 8.75 11.4565 8.75 11.125C8.75 10.7935 8.8817 10.4755 9.11612 10.2411C9.35054 10.0067 9.66848 9.875 10 9.875C10.3315 9.875 10.6495 10.0067 10.8839 10.2411C11.1183 10.4755 11.25 10.7935 11.25 11.125ZM10 16.75C10.3315 16.75 10.6495 16.6183 10.8839 16.3839C11.1183 16.1495 11.25 15.8315 11.25 15.5C11.25 15.1685 11.1183 14.8505 10.8839 14.6161C10.6495 14.3817 10.3315 14.25 10 14.25C9.66848 14.25 9.35054 14.3817 9.11612 14.6161C8.8817 14.8505 8.75 15.1685 8.75 15.5C8.75 15.8315 8.8817 16.1495 9.11612 16.3839C9.35054 16.6183 9.66848 16.75 10 16.75ZM16.25 15.5C16.25 15.8315 16.1183 16.1495 15.8839 16.3839C15.6495 16.6183 15.3315 16.75 15 16.75C14.6685 16.75 14.3505 16.6183 14.1161 16.3839C13.8817 16.1495 13.75 15.8315 13.75 15.5C13.75 15.1685 13.8817 14.8505 14.1161 14.6161C14.3505 14.3817 14.6685 14.25 15 14.25C15.3315 14.25 15.6495 14.3817 15.8839 14.6161C16.1183 14.8505 16.25 15.1685 16.25 15.5Z" fill="#5955B2"/>
</svg>
