<svg width="23" height="23" viewBox="0 0 23 23" fill="none" xmlns="http://www.w3.org/2000/svg">
<path d="M22.8696 21.6005C21.1871 18.5757 18.5944 16.4068 15.5686 15.3786C17.0653 14.4521 18.2281 13.0402 18.8785 11.3599C19.529 9.67956 19.631 7.82367 19.1689 6.07722C18.7069 4.33077 17.7063 2.79033 16.3209 1.69246C14.9355 0.59459 13.2418 0 11.5 0C9.75818 0 8.06452 0.59459 6.6791 1.69246C5.29369 2.79033 4.29313 4.33077 3.83108 6.07722C3.36904 7.82367 3.47105 9.67956 4.12145 11.3599C4.77186 13.0402 5.93469 14.4521 7.43138 15.3786C4.4056 16.4056 1.81286 18.5746 0.130395 21.6005C0.0686963 21.7051 0.0277718 21.8215 0.0100364 21.9429C-0.00769895 22.0642 -0.00188603 22.188 0.0271322 22.3069C0.0561505 22.4259 0.107786 22.5376 0.178993 22.6355C0.2502 22.7333 0.339535 22.8154 0.441728 22.8768C0.543921 22.9382 0.656902 22.9776 0.774004 22.9929C0.891106 23.0081 1.00996 22.9988 1.12355 22.9655C1.23714 22.9322 1.34316 22.8756 1.43537 22.799C1.52757 22.7224 1.60409 22.6274 1.66041 22.5195C3.74167 18.779 7.42033 16.5458 11.5 16.5458C15.5797 16.5458 19.2583 18.779 21.3396 22.5195C21.3959 22.6274 21.4724 22.7224 21.5646 22.799C21.6568 22.8756 21.7629 22.9322 21.8765 22.9655C21.99 22.9988 22.1089 23.0081 22.226 22.9929C22.3431 22.9776 22.4561 22.9382 22.5583 22.8768C22.6605 22.8154 22.7498 22.7333 22.821 22.6355C22.8922 22.5376 22.9438 22.4259 22.9729 22.3069C23.0019 22.188 23.0077 22.0642 22.99 21.9429C22.9722 21.8215 22.9313 21.7051 22.8696 21.6005ZM5.31366 8.27446C5.31366 7.00208 5.67648 5.75827 6.35625 4.70033C7.03601 3.64239 8.00219 2.81782 9.13259 2.3309C10.263 1.84398 11.5069 1.71658 12.7069 1.96481C13.9069 2.21304 15.0092 2.82575 15.8744 3.72546C16.7396 4.62516 17.3288 5.77146 17.5675 7.01939C17.8062 8.26732 17.6837 9.56083 17.2154 10.7364C16.7472 11.9119 15.9543 12.9166 14.9369 13.6235C13.9196 14.3304 12.7235 14.7077 11.5 14.7077C9.85982 14.7059 8.28732 14.0275 7.12754 12.8214C5.96775 11.6154 5.31542 9.9801 5.31366 8.27446Z" fill="#5955B2"/>
</svg>
