<svg width="26" height="25" viewBox="0 0 26 25" fill="none" xmlns="http://www.w3.org/2000/svg">
<path d="M24.5465 4.61056L13.2965 0.860555C13.104 0.7964 12.896 0.7964 12.7035 0.860555L1.45352 4.61056C1.26684 4.67278 1.10448 4.79217 0.989434 4.95181C0.874386 5.11145 0.812485 5.30324 0.8125 5.50001V14.875C0.8125 15.1236 0.911272 15.3621 1.08709 15.5379C1.2629 15.7137 1.50136 15.8125 1.75 15.8125C1.99864 15.8125 2.2371 15.7137 2.41291 15.5379C2.58873 15.3621 2.6875 15.1236 2.6875 14.875V6.80079L6.62383 8.11212C5.578 9.80173 5.24543 11.8373 5.69914 13.7719C6.15286 15.7065 7.35577 17.382 9.04375 18.4305C6.93437 19.2578 5.11094 20.7543 3.77734 22.8004C3.70799 22.9035 3.65981 23.0193 3.63562 23.1412C3.61142 23.2631 3.6117 23.3885 3.63642 23.5103C3.66113 23.632 3.70981 23.7477 3.77961 23.8504C3.84941 23.9532 3.93895 24.0411 4.04301 24.109C4.14707 24.1769 4.26359 24.2234 4.38579 24.2458C4.50799 24.2683 4.63343 24.2662 4.75482 24.2397C4.87622 24.2133 4.99114 24.163 5.09291 24.0917C5.19468 24.0204 5.28128 23.9296 5.34766 23.8246C7.11367 21.1152 9.90273 19.5625 13 19.5625C16.0973 19.5625 18.8863 21.1152 20.6523 23.8246C20.7898 24.029 21.0023 24.171 21.2436 24.22C21.485 24.269 21.736 24.2211 21.9423 24.0865C22.1486 23.9519 22.2937 23.7416 22.3462 23.5009C22.3986 23.2603 22.3543 23.0086 22.2227 22.8004C20.8891 20.7543 19.0586 19.2578 16.9562 18.4305C18.6426 17.3821 19.8444 15.7077 20.298 13.7745C20.7517 11.8413 20.4201 9.8071 19.3762 8.11798L24.5465 6.39532C24.7332 6.33313 24.8956 6.21375 25.0107 6.05411C25.1258 5.89447 25.1877 5.70267 25.1877 5.50587C25.1877 5.30907 25.1258 5.11726 25.0107 4.95762C24.8956 4.79798 24.7332 4.67861 24.5465 4.61641V4.61056ZM18.625 12.0625C18.6253 12.9518 18.4147 13.8285 18.0105 14.6206C17.6063 15.4127 17.0201 16.0977 16.2999 16.6194C15.5797 17.1411 14.7461 17.4847 13.8675 17.6218C12.9888 17.759 12.0902 17.6858 11.2453 17.4084C10.4004 17.131 9.63329 16.6572 9.00694 16.0259C8.3806 15.3947 7.91285 14.6239 7.64208 13.7768C7.37131 12.9297 7.30524 12.0306 7.44928 11.153C7.59332 10.2755 7.94336 9.44458 8.4707 8.72852L12.7035 10.1348C12.896 10.1989 13.104 10.1989 13.2965 10.1348L17.5293 8.72852C18.2415 9.69418 18.6255 10.8626 18.625 12.0625ZM13 8.26212L4.71484 5.50001L13 2.7379L21.2852 5.50001L13 8.26212Z" fill="white"/>
</svg>
