<svg width="30" height="30" viewBox="0 0 30 30" fill="none" xmlns="http://www.w3.org/2000/svg">
<path d="M17.666 11.3335H23.2216M17.666 16.1946H21.8327" stroke="white" stroke-width="1.875" stroke-linecap="round" stroke-linejoin="round"/>
<path d="M21.8333 3H7.94444C4.10913 3 1 6.10913 1 9.94444V21.0556C1 24.8909 4.10913 28 7.94444 28H21.8333C25.6686 28 28.7778 24.8909 28.7778 21.0556V9.94444C28.7778 6.10913 25.6686 3 21.8333 3Z" stroke="white" stroke-width="1.875" stroke-linecap="round" stroke-linejoin="round"/>
<path d="M5.16602 21.0557C6.84379 17.4709 13.0993 17.2362 14.8882 21.0557M12.8049 11.3334C12.8049 12.0702 12.5122 12.7767 11.9913 13.2976C11.4704 13.8186 10.7638 14.1112 10.0271 14.1112C9.29041 14.1112 8.58388 13.8186 8.06294 13.2976C7.54201 12.7767 7.24935 12.0702 7.24935 11.3334C7.24935 10.5967 7.54201 9.89019 8.06294 9.36926C8.58388 8.84832 9.29041 8.55566 10.0271 8.55566C10.7638 8.55566 11.4704 8.84832 11.9913 9.36926C12.5122 9.89019 12.8049 10.5967 12.8049 11.3334Z" stroke="white" stroke-width="1.875" stroke-linecap="round" stroke-linejoin="round"/>
</svg>
