<svg width="30" height="30" viewBox="0 0 30 30" fill="none" xmlns="http://www.w3.org/2000/svg">
<path fill-rule="evenodd" clip-rule="evenodd" d="M13.5 5.24997C11.312 5.24997 9.21354 6.11916 7.66637 7.66634C6.11919 9.21352 5.25 11.3119 5.25 13.5C5.25 15.688 6.11919 17.7864 7.66637 19.3336C9.21354 20.8808 11.312 21.75 13.5 21.75C15.688 21.75 17.7865 20.8808 19.3336 19.3336C20.8808 17.7864 21.75 15.688 21.75 13.5C21.75 11.3119 20.8808 9.21352 19.3336 7.66634C17.7865 6.11916 15.688 5.24997 13.5 5.24997ZM3 13.5C3.00014 11.821 3.40292 10.1665 4.17454 8.67531C4.94617 7.18413 6.06414 5.89974 7.43468 4.92986C8.80522 3.95999 10.3884 3.33293 12.0513 3.10128C13.7142 2.86962 15.4085 3.04013 16.9919 3.5985C18.5753 4.15688 20.0018 5.08682 21.1516 6.31034C22.3014 7.53386 23.141 9.01527 23.6 10.6303C24.059 12.2453 24.124 13.9469 23.7896 15.5923C23.4552 17.2376 22.7311 18.7788 21.678 20.0865L26.67 25.08C26.7805 25.183 26.8692 25.3072 26.9307 25.4452C26.9922 25.5832 27.0252 25.7321 27.0279 25.8832C27.0306 26.0342 27.0028 26.1843 26.9462 26.3244C26.8896 26.4644 26.8054 26.5917 26.6986 26.6985C26.5917 26.8054 26.4645 26.8896 26.3244 26.9462C26.1843 27.0027 26.0343 27.0305 25.8832 27.0279C25.7322 27.0252 25.5832 26.9921 25.4452 26.9306C25.3072 26.8692 25.183 26.7805 25.08 26.67L20.0865 21.678C18.5438 22.9205 16.6811 23.7014 14.7135 23.9303C12.7459 24.1593 10.7537 23.8269 8.96692 22.9718C7.18016 22.1166 5.67175 20.7734 4.61591 19.0974C3.56007 17.4214 2.99987 15.4808 3 13.5Z" fill="#5955B2"/>
</svg>
