<svg width="30" height="30" viewBox="0 0 30 30" fill="none" xmlns="http://www.w3.org/2000/svg">
<path d="M24.375 16.25V11.71C24.375 7.36875 24.375 5.1975 23.0938 3.84875C21.8125 2.5 19.75 2.5 15.625 2.5H11.875C7.75 2.5 5.6875 2.5 4.40625 3.85C3.125 5.19625 3.125 7.3675 3.125 11.7087V18.2887C3.125 22.63 3.125 24.8013 4.40625 26.15C5.6875 27.4988 7.75 27.5 11.875 27.5H13.75M16.875 25C16.875 25 18.125 25 19.375 27.5C19.375 27.5 23.3463 21.25 26.875 20" stroke="white" stroke-width="1.5" stroke-linecap="round" stroke-linejoin="round"/>
<path d="M8.75 2.5L8.8525 3.11625C9.1025 4.6125 9.2275 5.36125 9.7525 5.80625C10.275 6.25 11.0338 6.25 12.5513 6.25H14.9475C16.4638 6.25 17.2225 6.25 17.7475 5.80625C18.2725 5.36125 18.3975 4.6125 18.6462 3.11625L18.75 2.5M8.75 20H13.75M8.75 13.75H18.75" stroke="white" stroke-width="1.5" stroke-linecap="round" stroke-linejoin="round"/>
</svg>
