<svg width="28" height="24" viewBox="0 0 28 24" fill="none" xmlns="http://www.w3.org/2000/svg">
<path d="M16.5 8.25H21.5M16.5 12.625H20.25" stroke="white" stroke-width="1.5" stroke-linecap="round" stroke-linejoin="round"/>
<path d="M20.25 0.75H7.75C4.29822 0.75 1.5 3.54822 1.5 7V17C1.5 20.4518 4.29822 23.25 7.75 23.25H20.25C23.7018 23.25 26.5 20.4518 26.5 17V7C26.5 3.54822 23.7018 0.75 20.25 0.75Z" stroke="white" stroke-width="1.5" stroke-linecap="round" stroke-linejoin="round"/>
<path d="M5.25 17C6.76 13.7737 12.39 13.5625 14 17M12.125 8.25C12.125 8.91304 11.8616 9.54893 11.3928 10.0178C10.9239 10.4866 10.288 10.75 9.625 10.75C8.96196 10.75 8.32607 10.4866 7.85723 10.0178C7.38839 9.54893 7.125 8.91304 7.125 8.25C7.125 7.58696 7.38839 6.95107 7.85723 6.48223C8.32607 6.01339 8.96196 5.75 9.625 5.75C10.288 5.75 10.9239 6.01339 11.3928 6.48223C11.8616 6.95107 12.125 7.58696 12.125 8.25Z" stroke="white" stroke-width="1.5" stroke-linecap="round" stroke-linejoin="round"/>
</svg>
